<?xml version="1.0" encoding="utf-8"?>
<!-- Generator: Adobe Illustrator 22.0.1, SVG Export Plug-In . SVG Version: 6.00 Build 0)  -->
<svg version="1.1" id="Layer_1" xmlns="http://www.w3.org/2000/svg" xmlns:xlink="http://www.w3.org/1999/xlink" x="0px" y="0px"
	 viewBox="0 0 200 100" style="enable-background:new 0 0 200 100;" xml:space="preserve">
<style type="text/css">
	.st0{fill:#442B6F;}
	.st1{fill:#FFFFFF;}
</style>
<rect class="st0" width="200" height="100"/>
<g>
	<g>
		<path class="st1" d="M51.2,63.5V14.4c0-2.7,2.2-4.9,4.9-4.9h49.1c2.7,0,4.9,2.2,4.9,4.9v49.1c0,0.9-0.7,1.6-1.6,1.6H52.9
			C51.9,65.1,51.2,64.4,51.2,63.5z M90.9,80.3c0,5.7-4.6,10.3-10.3,10.3S70.4,86,70.4,80.3c0-5.7,4.6-10.3,10.3-10.3
			C86.3,70.1,90.9,74.7,90.9,80.3z M85.7,80.3c0-2.8-2.3-5.1-5.1-5.1c-2.8,0-5.1,2.3-5.1,5.1c0,2.8,2.3,5.1,5.1,5.1
			C83.4,85.4,85.7,83.2,85.7,80.3z M71.8,70.1h-23c-0.9,0-1.6,0.7-1.6,1.6v5c0,0.9,0.7,1.6,1.6,1.6h18.4
			C67.7,75.1,69.4,72.2,71.8,70.1z M144.5,80.3c0,5.7-4.6,10.3-10.3,10.3c-5.7,0-10.3-4.6-10.3-10.3c0-5.7,4.6-10.3,10.3-10.3
			C139.9,70.1,144.5,74.7,144.5,80.3z M139.4,80.3c0-2.8-2.3-5.1-5.1-5.1c-2.8,0-5.1,2.3-5.1,5.1c0,2.8,2.3,5.1,5.1,5.1
			S139.4,83.2,139.4,80.3z M162.6,71.7v5c0,0.9-0.7,1.6-1.6,1.6h-13.3c-1-6.5-6.6-11.6-13.4-11.6c-6.8,0-12.4,5-13.4,11.6H94
			c-0.5-3.3-2.1-6.2-4.6-8.3h25.5V22.9c0-1.8,1.5-3.3,3.3-3.3h15.6c4.4,0,8.5,2.2,10.9,5.8l10,14.9c1.5,2.2,2.3,4.7,2.3,7.4v22.4h4
			C161.9,70.1,162.6,70.8,162.6,71.7z M145.9,40.7l-8-11.4c-0.3-0.4-0.8-0.7-1.3-0.7H124c-0.9,0-1.6,0.7-1.6,1.6v11.4
			c0,0.9,0.7,1.6,1.6,1.6h20.5C145.9,43.3,146.7,41.8,145.9,40.7z"/>
	</g>
	<g>
	</g>
	<g>
	</g>
	<g>
	</g>
	<g>
	</g>
	<g>
	</g>
	<g>
	</g>
	<g>
	</g>
	<g>
	</g>
	<g>
	</g>
	<g>
	</g>
	<g>
	</g>
	<g>
	</g>
	<g>
	</g>
	<g>
	</g>
	<g>
	</g>
</g>
<g>
	<g>
		<g>
			<path class="st0" d="M104.5,45.9H57.6c-0.4,0-0.8,0.4-0.8,0.8c0,9.4,7.6,17,17,17h14.6c9.4,0,17-7.6,17-17
				C105.3,46.2,104.9,45.9,104.5,45.9z M88.3,62H73.8c-8.2,0-14.9-6.5-15.3-14.6h45.2C103.2,55.6,96.5,62,88.3,62z"/>
		</g>
	</g>
	<g>
		<g>
			<path class="st0" d="M98,26.5c0-0.1,0-0.1,0-0.2c-0.1-1.3-1-2.4-2.3-2.9l0.9-0.9c1.6-1.6,1.7-4,0.4-5.8c-1.5-1.8-4.2-2.1-6-0.6
				c-0.1,0.1-0.2,0.2-0.3,0.3l-1,1c-0.4-1.2-1.5-2.1-2.9-2.3c-1.8-0.1-3.3,1.3-3.4,3.1c0,0.1,0,0.1,0,0.2v1.2
				c-0.5-0.3-1-0.4-1.6-0.4c-0.1,0-0.1,0-0.2,0c-1.7,0.2-3.1,1.6-3,3.4v1.1c-0.5-0.3-1-0.4-1.6-0.4c-0.1,0-0.1,0-0.2,0
				c-1.7,0.2-3.1,1.6-3,3.4v12c0,0.4,0.4,0.8,0.8,0.8h13.7c1.8,0,3.2-1.5,3.2-3.2c0-0.6-0.2-1.1-0.4-1.6h1.1c1.7,0,3.2-1.3,3.4-3.1
				c0-0.7-0.1-1.3-0.4-1.8c0.7-0.1,1.4-0.4,1.9-0.9C97.7,28.1,98,27.3,98,26.5z M95.9,27.6c-0.3,0.3-0.7,0.5-1.1,0.5c0,0,0,0,0,0
				h-2.4c-0.4,0-0.8,0.4-0.8,0.8c0,0.4,0.4,0.8,0.8,0.8l0.1,0c0.9,0,1.6,0.8,1.5,1.7c-0.1,0.9-0.8,1.6-1.8,1.6h-3.9
				c-0.4,0-0.8,0.4-0.8,0.8s0.4,0.8,0.8,0.8c0.9,0,1.6,0.7,1.6,1.6c0,0.9-0.7,1.6-1.6,1.6H75.4V26.6c0-0.9,0.7-1.7,1.5-1.7l0.1,0
				c0.9,0,1.6,0.7,1.6,1.6v0c0,0.4,0.4,0.8,0.8,0.8c0,0,0,0,0,0c0.4,0,0.8-0.4,0.8-0.8v0v-3.9c0-0.9,0.7-1.7,1.5-1.7l0.1,0
				c0.9,0,1.6,0.7,1.6,1.6v0c0,0.4,0.4,0.8,0.8,0.8c0,0,0,0,0,0c0.4,0,0.8-0.4,0.8-0.8v0v-4l0-0.1c0-0.9,0.8-1.6,1.7-1.5
				c0.9,0.1,1.6,0.8,1.6,1.8v0.7c0,0.3,0.2,0.6,0.5,0.7c0.3,0.1,0.7,0.1,0.9-0.2l2.2-2.2c0.1-0.1,0.1-0.1,0.2-0.2
				c1.1-0.9,2.8-0.8,3.7,0.3c0.9,1.1,0.8,2.7-0.2,3.6l-2.1,2.1c-0.2,0.2-0.3,0.6-0.2,0.9c0.1,0.3,0.4,0.5,0.7,0.5h0.7c0,0,0,0,0,0
				c0.9,0,1.6,0.7,1.7,1.5l0,0.1C96.4,26.9,96.2,27.3,95.9,27.6z"/>
		</g>
	</g>
	<g>
		<g>
			<rect x="65" y="31.3" transform="matrix(0.7071 -0.7071 0.7071 0.7071 1.0291 66.7189)" class="st0" width="32" height="1.6"/>
		</g>
	</g>
	<g>
		<g>
			<rect x="86.7" y="21.6" class="st0" width="1.6" height="4"/>
		</g>
	</g>
	<g>
		<g>
			<rect x="81.9" y="25.7" class="st0" width="1.6" height="4.9"/>
		</g>
	</g>
	<g>
		<g>
			<rect x="77" y="29.7" class="st0" width="1.6" height="5.7"/>
		</g>
	</g>
	<g>
		<g>
			<rect x="87.5" y="24.8" class="st0" width="4" height="1.6"/>
		</g>
	</g>
	<g>
		<g>
			<rect x="82.7" y="29.7" class="st0" width="4.9" height="1.6"/>
		</g>
	</g>
	<g>
		<g>
			<rect x="77.8" y="34.5" class="st0" width="5.7" height="1.6"/>
		</g>
	</g>
	<g>
		<g>
			<path class="st0" d="M71.9,18.9C71.9,18.9,71.9,18.9,71.9,18.9c-1.1-1.7-3.5-2.2-5.2-1c-0.1,0-0.1,0.1-0.2,0.1l-0.3,0.2L66,18
				c-1.5-1.4-3.8-1.3-5.2,0.1c-0.7,0.7-1.1,1.7-1,2.6c0,1,0.4,1.9,1.1,2.6c0.2,0.2,0.4,0.4,0.7,0.5l0.7,0.5v0.4c0,2.2,1.8,4,4,4
				s4-1.8,4-4v-0.4l0.7-0.6C72.6,22.7,73,20.5,71.9,18.9z M70,22.6l-1,0.8c-0.2,0.2-0.3,0.4-0.3,0.6v0.8c0,1.3-1.1,2.4-2.4,2.4
				c-1.3,0-2.4-1.1-2.4-2.4V24c0-0.2-0.1-0.5-0.3-0.6l-1-0.8c0,0-0.1,0-0.1-0.1c-0.2-0.1-0.3-0.2-0.4-0.3c-0.4-0.4-0.6-0.9-0.6-1.5
				c0-0.6,0.2-1.1,0.6-1.5c0.4-0.4,1-0.6,1.5-0.6c0.5,0,1.1,0.2,1.5,0.6c0,0,0.1,0.1,0.1,0.1l0.8,0.6c0.3,0.2,0.7,0.2,1,0l0.9-0.6
				c0.5-0.3,1-0.4,1.6-0.3c0.6,0.1,1,0.4,1.3,0.9C71.1,20.7,70.9,21.9,70,22.6z"/>
		</g>
	</g>
	<g>
		<g>
			<rect x="74.6" y="15.9" class="st0" width="1.6" height="1.6"/>
		</g>
	</g>
	<g>
		<g>
			<rect x="79.4" y="41.8" class="st0" width="1.6" height="1.6"/>
		</g>
	</g>
	<g>
		<g>
			<path class="st0" d="M100.5,20v1.6c0.9,0,1.6,0.7,1.6,1.6s-0.7,1.6-1.6,1.6v1.6c1.8,0,3.2-1.5,3.2-3.2S102.2,20,100.5,20z"/>
		</g>
	</g>
	<g>
		<g>
			<rect x="58.4" y="27.3" class="st0" width="1.6" height="1.6"/>
		</g>
	</g>
	<g>
		<g>
			<rect x="56.8" y="24" class="st0" width="1.6" height="1.6"/>
		</g>
	</g>
	<g>
		<g>
			<path class="st0" d="M88.3,41c-1.8,0-3.2,1.5-3.2,3.2h1.6c0-0.9,0.7-1.6,1.6-1.6c0.9,0,1.6,0.7,1.6,1.6h1.6
				C91.6,42.5,90.1,41,88.3,41z"/>
		</g>
	</g>
	<g>
		<g>
			<path class="st0" d="M66.5,33.7h-0.1c-0.4-1.4-1.6-2.4-3.1-2.4c-1.5,0-2.8,1-3.1,2.4H60c-1.8,0-3.2,1.5-3.2,3.2s1.5,3.2,3.2,3.2
				h6.5c1.8,0,3.2-1.5,3.2-3.2C69.7,35.2,68.3,33.7,66.5,33.7z M66.5,38.6H60c-0.9,0-1.6-0.7-1.6-1.6c0-0.9,0.7-1.6,1.6-1.6h0.8
				c0.4,0,0.8-0.4,0.8-0.8c0-0.9,0.7-1.6,1.6-1.6c0.9,0,1.6,0.7,1.6,1.6c0,0.4,0.4,0.8,0.8,0.8h0.8c0.9,0,1.6,0.7,1.6,1.6
				C68.1,37.9,67.4,38.6,66.5,38.6z"/>
		</g>
	</g>
	<g>
		<g>
			<path class="st0" d="M64.9,38.6h-3.2c-0.4,0-0.8,0.4-0.8,0.8v3.2c0,0.4,0.4,0.8,0.8,0.8h3.2c0.4,0,0.8-0.4,0.8-0.8v-3.2
				C65.7,38.9,65.3,38.6,64.9,38.6z M64.1,41.8h-1.6v-1.6h1.6L64.1,41.8L64.1,41.8z"/>
		</g>
	</g>
	<g>
		<g>
			<path class="st0" d="M99.6,36.2c-1.3,0-2.4,1.1-2.4,2.4s1.1,2.4,2.4,2.4c1.3,0,2.4-1.1,2.4-2.4C102.1,37.3,101,36.2,99.6,36.2z
				 M99.6,39.4c-0.4,0-0.8-0.4-0.8-0.8s0.4-0.8,0.8-0.8c0.4,0,0.8,0.4,0.8,0.8C100.5,39,100.1,39.4,99.6,39.4z"/>
		</g>
	</g>
	<g>
		<g>
			<path class="st0" d="M99.6,32.9c-3.1,0-5.7,2.5-5.7,5.7c0,3.1,2.5,5.7,5.7,5.7c3.1,0,5.7-2.5,5.7-5.7
				C105.3,35.5,102.8,32.9,99.6,32.9z M99.6,42.6c-2.2,0-4-1.8-4-4c0-2.2,1.8-4,4-4c2.2,0,4,1.8,4,4
				C103.7,40.8,101.9,42.6,99.6,42.6z"/>
		</g>
	</g>
	<g>
	</g>
	<g>
	</g>
	<g>
	</g>
	<g>
	</g>
	<g>
	</g>
	<g>
	</g>
	<g>
	</g>
	<g>
	</g>
	<g>
	</g>
	<g>
	</g>
	<g>
	</g>
	<g>
	</g>
	<g>
	</g>
	<g>
	</g>
	<g>
	</g>
</g>
</svg>
