<?xml version="1.0" encoding="utf-8"?>
<!-- Generator: Adobe Illustrator 22.0.1, SVG Export Plug-In . SVG Version: 6.00 Build 0)  -->
<svg version="1.1" id="Layer_1" xmlns="http://www.w3.org/2000/svg" xmlns:xlink="http://www.w3.org/1999/xlink" x="0px" y="0px"
	 viewBox="0 0 200 100" style="enable-background:new 0 0 200 100;" xml:space="preserve">
<style type="text/css">
	.st0{fill:#E4E341;}
	.st1{fill:#010101;}
</style>
<rect class="st0" width="200" height="100"/>
<g>
	<path class="st1" d="M141.8,26.7c0.8-0.8,0.8-2.1,0-3L126.3,8.2c-0.8-0.8-2.1-0.8-3,0l-18,18c-0.8,0.8-0.8,2.1,0,3
		c0.8,0.8,2.1,0.8,3,0l16.5-16.5l12.6,12.6l-5.8,5.8l-4.6-4.6c-0.8-0.8-2.1-0.8-3,0c-0.8,0.8-0.8,2.1,0,3l4.6,4.6l-5,5l-4.6-4.6
		c-0.8-0.8-2.1-0.8-3,0c-0.8,0.8-0.8,2.1,0,3l4.6,4.6l-4.3,4.3L89.7,19.4l-6.5-6.5c-2.2-2.2-5.2-3.4-8.3-3.4s-6.1,1.2-8.3,3.4
		l-3.7,3.7c-4.6,4.6-4.6,12,0,16.6l6.5,6.5c0,0,0,0,0,0l11.2,11.2L58.2,73.3c-0.8,0.8-0.8,2.1,0,3l15.6,15.6
		c0.4,0.4,0.9,0.6,1.5,0.6s1.1-0.2,1.5-0.6l19-19c0.8-0.8,0.8-2.1,0-3c-0.8-0.8-2.1-0.8-3,0l-0.8,0.8l-4.6-4.6c-0.8-0.8-2.1-0.8-3,0
		c-0.8,0.8-0.8,2.1,0,3l4.6,4.6l-5,5L79.4,74c-0.8-0.8-2.1-0.8-3,0c-0.8,0.8-0.8,2.1,0,3l4.6,4.6l-5.8,5.8L62.6,74.8l21-21
		l26.8,26.8c0,0,0,0,0,0c0,0,0.1,0.1,0.1,0.1c0,0,0,0,0.1,0.1c0,0,0.1,0,0.1,0.1c0,0,0.1,0,0.1,0.1c0,0,0.1,0,0.1,0.1
		c0,0,0.1,0,0.1,0.1c0,0,0,0,0.1,0c0,0,0.1,0,0.1,0c0,0,0,0,0,0l25.8,8.5c0.2,0.1,0.4,0.1,0.7,0.1c0.5,0,1.1-0.2,1.5-0.6
		c0.6-0.6,0.8-1.4,0.5-2.1l-8.5-25.8c0,0,0,0,0-0.1c0,0,0-0.1,0-0.1c0,0,0-0.1,0-0.1c0,0,0-0.1-0.1-0.1c0,0,0-0.1-0.1-0.1
		c0,0,0-0.1-0.1-0.1c0,0,0-0.1-0.1-0.1c0,0,0,0,0-0.1c0,0-0.1-0.1-0.1-0.1c0,0,0,0,0,0l-11.2-11.2L141.8,26.7z M115.7,78.2
		l12.5-12.5l6.2,18.7L115.7,78.2z M111.8,76.2L72.3,36.7c0,0,0,0,0,0l-6.4-6.4c-2.9-2.9-2.9-7.7,0-10.7l3.7-3.7
		c1.4-1.4,3.3-2.2,5.3-2.2s3.9,0.8,5.3,2.2l5,5l-7,7c-0.8,0.8-0.8,2.1,0,3c0.8,0.8,2.1,0.8,3,0l7-7l38,38L111.8,76.2z"/>
	<g>
	</g>
	<g>
	</g>
	<g>
	</g>
	<g>
	</g>
	<g>
	</g>
	<g>
	</g>
	<g>
	</g>
	<g>
	</g>
	<g>
	</g>
	<g>
	</g>
	<g>
	</g>
	<g>
	</g>
	<g>
	</g>
	<g>
	</g>
	<g>
	</g>
</g>
</svg>
