<?xml version="1.0" encoding="utf-8"?>
<!-- Generator: Adobe Illustrator 22.0.1, SVG Export Plug-In . SVG Version: 6.00 Build 0)  -->
<svg version="1.1" id="Layer_1" xmlns="http://www.w3.org/2000/svg" xmlns:xlink="http://www.w3.org/1999/xlink" x="0px" y="0px"
	 viewBox="0 0 200 100" style="enable-background:new 0 0 200 100;" xml:space="preserve">
<style type="text/css">
	.st0{fill:#EE676A;}
	.st1{fill:#FFFFFF;stroke:#FFFFFF;stroke-miterlimit:10;}
</style>
<rect class="st0" width="200" height="100"/>
<g>
	<g>
		<g>
			<path class="st1" d="M69.5,79.5c-5.1,0-9.3,4.2-9.3,9.3c0,0.7,0.6,1.3,1.3,1.3h15.9c0.7,0,1.3-0.6,1.3-1.3
				C78.8,83.7,74.6,79.5,69.5,79.5z M63,87.5c0.5-2.6,2.6-4.6,5.2-5.2v2.5h2.7v-2.5c2.6,0.5,4.6,2.6,5.2,5.2H63z"/>
		</g>
	</g>
	<g>
		<g>
			<path class="st1" d="M138.5,67.6h-2.3c-0.1-0.2-0.1-0.4-0.2-0.6l1.6-1.6c0.5-0.5,0.5-1.4,0-1.9l-5.6-5.6c-0.3-0.3-0.6-0.4-1-0.4
				c2.1-1.1,3.6-3.3,3.6-5.8V17.2c0-3.7-3-6.6-6.6-6.6h-61c-3.7,0-6.6,3-6.6,6.6v34.5c0,3.7,3,6.6,6.6,6.6h17.3l-5,9.3h-0.4h-2
				c-2.6,0-4.6,2.1-4.6,4.6s2.1,4.6,4.6,4.6h28.5c0,0.7,0.6,1.3,1.3,1.3h2.3c0.1,0.2,0.1,0.4,0.2,0.6l-1.6,1.6
				c-0.5,0.5-0.5,1.4,0,1.9l5.6,5.6c0.5,0.5,1.4,0.5,1.9,0l1.6-1.6c0.2,0.1,0.4,0.2,0.6,0.2v2.3c0,0.7,0.6,1.3,1.3,1.3h8
				c0.7,0,1.3-0.6,1.3-1.3v-2.3c0.2-0.1,0.4-0.1,0.6-0.2l1.6,1.6c0.5,0.5,1.4,0.5,1.9,0l5.6-5.6c0.5-0.5,0.5-1.4,0-1.9l-1.6-1.6
				c0.1-0.2,0.2-0.4,0.2-0.6h2.3c0.7,0,1.3-0.6,1.3-1.3v-8C139.8,68.2,139.2,67.6,138.5,67.6z M62.9,17.2c0-2.2,1.8-4,4-4h61
				c2.2,0,4,1.8,4,4V45h-69V17.2z M66.9,55.6c-2.2,0-4-1.8-4-4v-4h69v4c0,2.2-1.8,4-4,4h-1.3h-8h-10.2H86.4H66.9z M130,57.9
				l-1.6,1.6c-0.2-0.1-0.4-0.2-0.6-0.2v-1C128.6,58.3,129.3,58.1,130,57.9z M117.2,58.3v1c-0.2,0.1-0.4,0.1-0.6,0.2l-1.2-1.2H117.2z
				 M112.7,58.3l-1.1,1.1l-0.8-1.1H112.7z M105.3,74.2H76.8c-1.1,0-2-0.9-2-2s0.9-2,2-2h2h1.2h25.4V74.2z M82.2,67.6l5-9.3h20.5
				l2.1,3.1l-2.2,2.2c-0.5,0.5-0.5,1.4,0,1.9l1.6,1.6c-0.1,0.2-0.2,0.4-0.2,0.6h-2.3H82.2z M137.1,75.5h-1.9c-0.6,0-1.1,0.4-1.3,0.9
				c-0.2,0.6-0.5,1.3-0.8,1.9c-0.3,0.5-0.2,1.1,0.2,1.6l1.4,1.4l-3.7,3.7l-1.4-1.4c-0.4-0.4-1-0.5-1.6-0.2c-0.6,0.3-1.3,0.6-1.9,0.8
				c-0.6,0.2-0.9,0.7-0.9,1.3v1.9h-5.3v-1.9c0-0.6-0.4-1.1-0.9-1.3c-0.6-0.2-1.3-0.5-1.9-0.8c-0.5-0.3-1.1-0.2-1.6,0.2l-1.4,1.4
				l-3.7-3.7l1.4-1.4c0.4-0.4,0.5-1,0.2-1.6c-0.3-0.6-0.6-1.3-0.8-1.9c-0.2-0.6-0.7-0.9-1.3-0.9H108v-5.3h1.9c0.6,0,1.1-0.4,1.3-0.9
				c0.2-0.6,0.5-1.3,0.8-1.9c0.3-0.5,0.2-1.1-0.2-1.6l-1.4-1.4l3.7-3.7l1.4,1.4c0.4,0.4,1,0.5,1.6,0.2c0.6-0.3,1.3-0.6,1.9-0.8
				c0.6-0.2,0.9-0.7,0.9-1.3v-1.9h5.3v1.9c0,0.6,0.4,1.1,0.9,1.3c0.6,0.2,1.3,0.5,1.9,0.8c0.5,0.3,1.1,0.2,1.6-0.2l1.4-1.4l3.7,3.7
				l-1.4,1.4c-0.4,0.4-0.5,1-0.2,1.6c0.3,0.6,0.6,1.3,0.8,1.9c0.2,0.6,0.7,0.9,1.3,0.9h1.9V75.5z"/>
		</g>
	</g>
	<g>
		<g>
			<path class="st1" d="M122.5,64.9c-4.4,0-8,3.6-8,8c0,4.4,3.6,8,8,8s8-3.6,8-8C130.5,68.5,126.9,64.9,122.5,64.9z M122.5,78.2
				c-2.9,0-5.3-2.4-5.3-5.3s2.4-5.3,5.3-5.3s5.3,2.4,5.3,5.3S125.5,78.2,122.5,78.2z"/>
		</g>
	</g>
	<g>
		<g>
			<path class="st1" d="M86.4,20.8l-1.9-1.9l-9.3,9.3c-0.5,0.5-0.5,1.4,0,1.9l9.3,9.3l1.9-1.9L78,29.1L86.4,20.8z"/>
		</g>
	</g>
	<g>
		<g>
			<path class="st1" d="M115.5,28.2l-9.3-9.3l-1.9,1.9l8.3,8.3l-8.3,8.3l1.9,1.9l9.3-9.3C116,29.5,116,28.7,115.5,28.2z"/>
		</g>
	</g>
	<g>
		<g>
			
				<rect x="82" y="26.5" transform="matrix(0.4472 -0.8944 0.8944 0.4472 27.8457 100.6567)" class="st1" width="26.7" height="2.7"/>
		</g>
	</g>
	<g>
		<g>
			<rect x="111.9" y="37.1" class="st1" width="2.7" height="2.7"/>
		</g>
	</g>
	<g>
		<g>
			<rect x="117.2" y="37.1" class="st1" width="2.7" height="2.7"/>
		</g>
	</g>
	<g>
		<g>
			<rect x="122.5" y="37.1" class="st1" width="2.7" height="2.7"/>
		</g>
	</g>
	<g>
	</g>
	<g>
	</g>
	<g>
	</g>
	<g>
	</g>
	<g>
	</g>
	<g>
	</g>
	<g>
	</g>
	<g>
	</g>
	<g>
	</g>
	<g>
	</g>
	<g>
	</g>
	<g>
	</g>
	<g>
	</g>
	<g>
	</g>
	<g>
	</g>
</g>
</svg>
