<?xml version="1.0" encoding="utf-8"?>
<!-- Generator: Adobe Illustrator 22.0.1, SVG Export Plug-In . SVG Version: 6.00 Build 0)  -->
<svg version="1.1" id="Layer_1" xmlns="http://www.w3.org/2000/svg" xmlns:xlink="http://www.w3.org/1999/xlink" x="0px" y="0px"
	 viewBox="0 0 200 100" style="enable-background:new 0 0 200 100;" xml:space="preserve">
<style type="text/css">
	.st0{fill:#233765;}
	.st1{fill:#FFFFFF;}
</style>
<rect class="st0" width="200" height="100"/>
<g>
	<g>
		<g>
			<path class="st1" d="M131.5,60.9V18.5c0-3.7-3-6.6-6.6-6.6H75.9c-3.7,0-6.6,3-6.6,6.6v2.4h-2.4c-3.7,0-6.6,3-6.6,6.6
				s3,6.6,6.6,6.6h2.4V43h-2.4c-3.7,0-6.6,3-6.6,6.6c0,3.7,3,6.6,6.6,6.6h2.4v8.9h-2.4c-3.7,0-6.6,3-6.6,6.6c0,3.7,3,6.6,6.6,6.6
				h2.4v2.2c0,1.8,0.7,3.4,1.9,4.7c1.3,1.3,2.9,2.1,4.7,2.1h44.4c8.5,0,15.5-7,15.5-15.7C135.9,67.6,134.2,63.7,131.5,60.9z
				 M66.9,29.7c-1.2,0-2.2-1-2.2-2.2s1-2.2,2.2-2.2h4.6c1.2,0,2.2,1,2.2,2.2s-1,2.2-2.2,2.2H66.9z M66.9,51.8c-1.2,0-2.2-1-2.2-2.2
				s1-2.2,2.2-2.2h4.6c1.2,0,2.2,1,2.2,2.2s-1,2.2-2.2,2.2H66.9z M71.5,74h-4.6c-1.2,0-2.2-1-2.2-2.2c0-1.2,1-2.2,2.2-2.2h4.6
				c1.2,0,2.2,1,2.2,2.2C73.7,73,72.7,74,71.5,74z M75.9,83c-1.2,0-2.2-1.1-2.2-2.4V78c2.6-0.9,4.4-3.4,4.4-6.3
				c0-2.9-1.9-5.3-4.4-6.3v-9.6c2.6-0.9,4.4-3.4,4.4-6.3c0-2.9-1.9-5.3-4.4-6.3v-9.6c2.6-0.9,4.4-3.4,4.4-6.3s-1.9-5.3-4.4-6.3v-2.7
				c0-1.2,1-2.2,2.2-2.2h48.9c1.2,0,2.2,1,2.2,2.2v39.3c-2-1-4.3-1.5-6.6-1.5c-8.5,0-15.5,7-15.5,15.5c0,4.4,1.8,8.4,4.7,11.2H75.9z
				 M120.4,83c-6.1,0-11.1-5-11.1-11.2c0-6.1,5-11.1,11.1-11.1c6.1,0,11.1,5,11.1,11.1C131.5,78,126.5,83,120.4,83z"/>
		</g>
	</g>
	<g>
		<g>
			<path class="st1" d="M120.4,29.7h-13.3c-1.2,0-2.2,1-2.2,2.2s1,2.2,2.2,2.2h13.3c1.2,0,2.2-1,2.2-2.2S121.6,29.7,120.4,29.7z"/>
		</g>
	</g>
	<g>
		<g>
			<path class="st1" d="M120.4,47.4h-13.3c-1.2,0-2.2,1-2.2,2.2s1,2.2,2.2,2.2h13.3c1.2,0,2.2-1,2.2-2.2S121.6,47.4,120.4,47.4z"/>
		</g>
	</g>
	<g>
		<g>
			<path class="st1" d="M124.8,69.6h-2.2v-2.2c0-1.2-1-2.2-2.2-2.2c-1.2,0-2.2,1-2.2,2.2v4.4c0,1.2,1,2.2,2.2,2.2h4.4
				c1.2,0,2.2-1,2.2-2.2C127,70.5,126,69.6,124.8,69.6z"/>
		</g>
	</g>
	<g>
		<g>
			<path class="st1" d="M99.7,25.9c-0.9-0.9-2.3-0.9-3.1,0l-7.3,7.3l-3.5-3.5c-0.9-0.9-2.3-0.9-3.1,0s-0.9,2.3,0,3.1l5.1,5.1
				c0.4,0.4,1,0.6,1.6,0.6s1.1-0.2,1.6-0.6l8.9-8.9C100.5,28.2,100.5,26.8,99.7,25.9z"/>
		</g>
	</g>
	<g>
		<g>
			<path class="st1" d="M99.7,43.6c-0.9-0.9-2.3-0.9-3.1,0l-7.3,7.3l-3.5-3.5c-0.9-0.9-2.3-0.9-3.1,0c-0.9,0.9-0.9,2.3,0,3.1
				l5.1,5.1c0.4,0.4,1,0.6,1.6,0.6s1.1-0.2,1.6-0.6l8.9-8.9C100.5,45.9,100.5,44.5,99.7,43.6z"/>
		</g>
	</g>
	<g>
		<g>
			<path class="st1" d="M99.7,61.3c-0.9-0.9-2.3-0.9-3.1,0l-7.3,7.3l-3.5-3.5c-0.9-0.9-2.3-0.9-3.1,0c-0.9,0.9-0.9,2.3,0,3.1
				l5.1,5.1c0.4,0.4,1,0.6,1.6,0.6s1.1-0.2,1.6-0.6l8.9-8.9C100.5,63.6,100.5,62.2,99.7,61.3z"/>
		</g>
	</g>
	<g>
	</g>
	<g>
	</g>
	<g>
	</g>
	<g>
	</g>
	<g>
	</g>
	<g>
	</g>
	<g>
	</g>
	<g>
	</g>
	<g>
	</g>
	<g>
	</g>
	<g>
	</g>
	<g>
	</g>
	<g>
	</g>
	<g>
	</g>
	<g>
	</g>
</g>
</svg>
