<?xml version="1.0" encoding="utf-8"?>
<!-- Generator: Adobe Illustrator 22.0.1, SVG Export Plug-In . SVG Version: 6.00 Build 0)  -->
<svg version="1.1" id="Layer_1" xmlns="http://www.w3.org/2000/svg" xmlns:xlink="http://www.w3.org/1999/xlink" x="0px" y="0px"
	 viewBox="0 0 200 100" style="enable-background:new 0 0 200 100;" xml:space="preserve">
<style type="text/css">
	.st0{fill:#9C9A3E;}
	.st1{fill:#FDFEFE;stroke:#FDFEFE;stroke-width:3;stroke-miterlimit:10;}
</style>
<rect class="st0" width="200" height="100"/>
<g>
	<g>
		<g>
			<path class="st1" d="M149.6,49.3h-8.5c3.5-8,3.2-14.6,1.8-19c-2.3-7.9-10.1-16.4-21.5-16.4c-3.1,0-6.1,0.6-9.3,1.7
				c-5.5,2-9.1,4.2-10.7,5.4c-1.6-1.1-5.2-3.4-10.7-5.4c-3.2-1.1-6.3-1.7-9.3-1.7c-11.5,0-19.2,8.5-21.5,16.4
				C58.5,35,58,42.1,62.5,51H52.2c-0.9,0-1.5,0.7-1.5,1.5c0,0.9,0.7,1.5,1.5,1.5h12.2c0.5,0.9,1.1,1.7,1.7,2.6
				c10,14.4,31.6,30,35.5,30.9v0.1c0,0,0.1,0,0.2-0.1c0.1,0,0.2,0,0.3,0v-0.1c3.4-1.6,24.1-15,35-30.9c1.1-1.4,1.9-2.9,2.7-4.3h10.1
				c0.9,0,1.5-0.7,1.5-1.5C151.4,49.8,150.5,49.3,149.6,49.3z M134.3,54.9c-10.1,14.8-28.8,26.8-32.8,29.4
				c-4.1-2.6-22.7-14.6-32.9-29.4c-0.2-0.3-0.4-0.6-0.6-0.9H82c0.6,0,1.1-0.3,1.4-0.9l6.4-12.6l10.1,25.8c0.2,0.6,0.9,1,1.4,1
				c0,0,0,0,0.1,0c0.7,0,1.2-0.5,1.4-1.1l8.8-30.2l4.7,15.2c0.2,0.6,0.7,1,1.2,1.1c0.6,0.1,1.1-0.2,1.5-0.7l3.7-5.5l3.2,5.4
				c0.3,0.5,0.8,0.8,1.3,0.8h8.6C135.5,53.2,134.9,54.1,134.3,54.9z M137.8,49.3h-9.4l-3.9-6.7c-0.3-0.5-0.8-0.8-1.3-0.8
				s-1.1,0.2-1.3,0.7l-3.3,4.8l-5.3-17.1c-0.2-0.7-0.9-1.1-1.5-1.1c-0.7,0-1.3,0.5-1.5,1.1l-8.9,30.7l-9.7-24.7
				c-0.2-0.6-0.8-1-1.3-1c-0.7,0-1.1,0.3-1.4,0.9l-7.6,14.8H66.1c-3.8-7-4.9-13.7-3.2-19.7c2-6.8,8.6-14.1,18.6-14.1
				c2.7,0,5.5,0.6,8.2,1.5c7,2.6,10.7,5.6,10.8,5.6c0.6,0.5,1.3,0.5,1.9,0c0,0,3.7-3,10.8-5.6c2.8-1.1,5.6-1.5,8.2-1.5
				c9.9,0,16.6,7.3,18.6,14.1C141.7,36.7,140.8,42.9,137.8,49.3z"/>
		</g>
	</g>
	<g>
	</g>
	<g>
	</g>
	<g>
	</g>
	<g>
	</g>
	<g>
	</g>
	<g>
	</g>
	<g>
	</g>
	<g>
	</g>
	<g>
	</g>
	<g>
	</g>
	<g>
	</g>
	<g>
	</g>
	<g>
	</g>
	<g>
	</g>
	<g>
	</g>
</g>
</svg>
