<?xml version="1.0" encoding="utf-8"?>
<!-- Generator: Adobe Illustrator 22.0.1, SVG Export Plug-In . SVG Version: 6.00 Build 0)  -->
<svg version="1.1" id="Layer_1" xmlns="http://www.w3.org/2000/svg" xmlns:xlink="http://www.w3.org/1999/xlink" x="0px" y="0px"
	 viewBox="0 0 200 100" style="enable-background:new 0 0 200 100;" xml:space="preserve">
<style type="text/css">
	.st0{fill:#E72F30;}
	.st1{fill:#FFFFFF;}
</style>
<rect class="st0" width="200" height="100"/>
<g>
	<g>
		<g>
			<path class="st1" d="M137.4,36.4L131,30l4.8-4.8c0.4-0.4,0.7-1,0.7-1.6c0-0.6-0.2-1.2-0.7-1.6l-6.5-6.5c-0.9-0.9-2.4-0.9-3.2,0
				l-4.8,4.8l-6.4-6.4c-1.8-1.8-4.7-1.8-6.4,0c-1.8,1.8-1.8,4.7,0,6.4L131,42.9c1.8,1.8,4.7,1.8,6.4,0S139.2,38.2,137.4,36.4z"/>
		</g>
	</g>
	<g>
		<g>
			<path class="st1" d="M91.5,82.4L69,59.9c-1.8-1.8-4.7-1.8-6.4,0c-1.8,1.8-1.8,4.7,0,6.4l6.4,6.4l-4.8,4.8c-0.4,0.4-0.7,1-0.7,1.6
				s0.2,1.2,0.7,1.6l6.5,6.5c0.4,0.4,1,0.7,1.6,0.7s1.2-0.2,1.6-0.7l4.8-4.8l6.4,6.4c1.8,1.8,4.7,1.8,6.4,0
				C93.3,87,93.3,84.2,91.5,82.4z"/>
		</g>
	</g>
	<g>
		<g>
			<polygon class="st1" points="102.1,39.7 88.3,53.5 97.9,63.1 111.7,49.3 			"/>
		</g>
	</g>
	<g>
		<g>
			<path class="st1" d="M131,49.3l-28.9-28.9c-1.8-1.8-4.7-1.8-6.4,0c-1.8,1.8-1.8,4.7,0,6.4l28.9,28.9c1.8,1.8,4.7,1.8,6.4,0
				C132.8,53.9,132.8,51.1,131,49.3z"/>
		</g>
	</g>
	<g>
		<g>
			<path class="st1" d="M104.3,76L75.4,47.1c-1.8-1.8-4.7-1.8-6.4,0c-1.8,1.8-1.8,4.7,0,6.4l28.9,28.9c1.8,1.8,4.7,1.8,6.4,0
				C106.1,80.6,106.1,77.7,104.3,76z"/>
		</g>
	</g>
	<g>
	</g>
	<g>
	</g>
	<g>
	</g>
	<g>
	</g>
	<g>
	</g>
	<g>
	</g>
	<g>
	</g>
	<g>
	</g>
	<g>
	</g>
	<g>
	</g>
	<g>
	</g>
	<g>
	</g>
	<g>
	</g>
	<g>
	</g>
	<g>
	</g>
</g>
</svg>
